<?xml version="1.0" encoding="UTF-8" standalone="no"?>
<!DOCTYPE svg PUBLIC "-//W3C//DTD SVG 1.1//EN"
 "http://www.w3.org/Graphics/SVG/1.1/DTD/svg11.dtd">
<!-- Generated by graphviz version 2.40.1 (20161225.0304)
 -->
<!-- Title: dependencies Pages: 1 -->
<svg width="504pt" height="211pt"
 viewBox="0.00 0.00 504.00 211.00" xmlns="http://www.w3.org/2000/svg" xmlns:xlink="http://www.w3.org/1999/xlink">
<g id="graph0" class="graph" transform="scale(1 1) rotate(0) translate(4 207)">
<title>dependencies</title>
<polygon fill="#ffffff" stroke="transparent" points="-4,4 -4,-207 500,-207 500,4 -4,4"/>
<text text-anchor="start" x="227.0091" y="-42.4" font-family="sans-serif" font-weight="bold" font-size="14.00" fill="#000000">Legend</text>
<polygon fill="#ffffb3" stroke="transparent" points="14,-10 14,-30 34,-30 34,-10 14,-10"/>
<text text-anchor="start" x="37.629" y="-15.4" font-family="sans-serif" font-size="14.00" fill="#000000"> &#160;Declarations</text>
<polygon fill="#8dd3c7" stroke="transparent" points="127,-10 127,-30 147,-30 147,-10 127,-10"/>
<text text-anchor="start" x="150.7251" y="-15.4" font-family="sans-serif" font-size="14.00" fill="#000000"> &#160;Module</text>
<polygon fill="#80b1d3" stroke="transparent" points="213,-10 213,-30 233,-30 233,-10 213,-10"/>
<text text-anchor="start" x="236.7812" y="-15.4" font-family="sans-serif" font-size="14.00" fill="#000000"> &#160;Bootstrap</text>
<polygon fill="#fdb462" stroke="transparent" points="310,-10 310,-30 330,-30 330,-10 310,-10"/>
<text text-anchor="start" x="333.6732" y="-15.4" font-family="sans-serif" font-size="14.00" fill="#000000"> &#160;Providers</text>
<polygon fill="#fb8072" stroke="transparent" points="406,-10 406,-30 426,-30 426,-10 406,-10"/>
<text text-anchor="start" x="429.7258" y="-15.4" font-family="sans-serif" font-size="14.00" fill="#000000"> &#160;Exports</text>
<g id="clust1" class="cluster">
<title>cluster_ErrorModule</title>
<polygon fill="none" stroke="#000000" stroke-dasharray="1,5" points="135,-70 135,-195 361,-195 361,-70 135,-70"/>
</g>
<g id="clust2" class="cluster">
<title>cluster_ErrorModule_declarations</title>
<polygon fill="none" stroke="#000000" points="265,-78 265,-130 353,-130 353,-78 265,-78"/>
</g>
<g id="clust4" class="cluster">
<title>cluster_ErrorModule_imports</title>
<polygon fill="none" stroke="#000000" points="143,-78 143,-130 257,-130 257,-78 143,-78"/>
</g>
<!-- ErrorPage -->
<g id="node1" class="node">
<title>ErrorPage</title>
<polygon fill="#ffffb3" stroke="#000000" points="345.2466,-122 272.7534,-122 272.7534,-86 345.2466,-86 345.2466,-122"/>
<text text-anchor="middle" x="309" y="-99.8" font-family="Times,serif" font-size="14.00" fill="#000000">ErrorPage</text>
</g>
<!-- ErrorModule -->
<g id="node2" class="node">
<title>ErrorModule</title>
<polygon fill="#8dd3c7" stroke="#000000" points="298.5842,-187 295.5842,-191 274.5842,-191 271.5842,-187 209.4158,-187 209.4158,-151 298.5842,-151 298.5842,-187"/>
<text text-anchor="middle" x="254" y="-164.8" font-family="Times,serif" font-size="14.00" fill="#000000">ErrorModule</text>
</g>
<!-- ErrorPage&#45;&gt;ErrorModule -->
<g id="edge1" class="edge">
<title>ErrorPage&#45;&gt;ErrorModule</title>
<path fill="none" stroke="#000000" d="M285.5845,-122.1061C285.5845,-122.1061 285.5845,-140.991 285.5845,-140.991"/>
<polygon fill="#000000" stroke="#000000" points="282.0846,-140.9909 285.5845,-150.991 289.0846,-140.991 282.0846,-140.9909"/>
</g>
<!-- ThemeModule -->
<g id="node3" class="node">
<title>ThemeModule</title>
<polygon fill="#8dd3c7" stroke="#000000" points="249.4231,-122 246.4231,-126 225.4231,-126 222.4231,-122 150.5769,-122 150.5769,-86 249.4231,-86 249.4231,-122"/>
<text text-anchor="middle" x="200" y="-99.8" font-family="Times,serif" font-size="14.00" fill="#000000">ThemeModule</text>
</g>
<!-- ThemeModule&#45;&gt;ErrorModule -->
<g id="edge2" class="edge">
<title>ThemeModule&#45;&gt;ErrorModule</title>
<path fill="none" stroke="#000000" d="M229.3345,-122.1061C229.3345,-122.1061 229.3345,-140.991 229.3345,-140.991"/>
<polygon fill="#000000" stroke="#000000" points="225.8346,-140.9909 229.3345,-150.991 232.8346,-140.991 225.8346,-140.9909"/>
</g>
</g>
</svg>
