<?xml version="1.0" encoding="UTF-8" standalone="no"?>
<!DOCTYPE svg PUBLIC "-//W3C//DTD SVG 1.1//EN"
 "http://www.w3.org/Graphics/SVG/1.1/DTD/svg11.dtd">
<!-- Generated by graphviz version 2.40.1 (20161225.0304)
 -->
<!-- Title: dependencies Pages: 1 -->
<svg width="1100pt" height="284pt"
 viewBox="0.00 0.00 1100.00 284.00" xmlns="http://www.w3.org/2000/svg" xmlns:xlink="http://www.w3.org/1999/xlink">
<g id="graph0" class="graph" transform="scale(1 1) rotate(0) translate(4 280)">
<title>dependencies</title>
<polygon fill="#ffffff" stroke="transparent" points="-4,4 -4,-280 1096,-280 1096,4 -4,4"/>
<text text-anchor="start" x="525.0091" y="-42.4" font-family="sans-serif" font-weight="bold" font-size="14.00" fill="#000000">Legend</text>
<polygon fill="#ffffb3" stroke="transparent" points="312,-10 312,-30 332,-30 332,-10 312,-10"/>
<text text-anchor="start" x="335.629" y="-15.4" font-family="sans-serif" font-size="14.00" fill="#000000"> &#160;Declarations</text>
<polygon fill="#8dd3c7" stroke="transparent" points="425,-10 425,-30 445,-30 445,-10 425,-10"/>
<text text-anchor="start" x="448.7251" y="-15.4" font-family="sans-serif" font-size="14.00" fill="#000000"> &#160;Module</text>
<polygon fill="#80b1d3" stroke="transparent" points="511,-10 511,-30 531,-30 531,-10 511,-10"/>
<text text-anchor="start" x="534.7812" y="-15.4" font-family="sans-serif" font-size="14.00" fill="#000000"> &#160;Bootstrap</text>
<polygon fill="#fdb462" stroke="transparent" points="608,-10 608,-30 628,-30 628,-10 608,-10"/>
<text text-anchor="start" x="631.6732" y="-15.4" font-family="sans-serif" font-size="14.00" fill="#000000"> &#160;Providers</text>
<polygon fill="#fb8072" stroke="transparent" points="704,-10 704,-30 724,-30 724,-10 704,-10"/>
<text text-anchor="start" x="727.7258" y="-15.4" font-family="sans-serif" font-size="14.00" fill="#000000"> &#160;Exports</text>
<g id="clust1" class="cluster">
<title>cluster_ThemeModule</title>
<polygon fill="none" stroke="#000000" stroke-dasharray="1,5" points="8,-70 8,-268 1084,-268 1084,-70 8,-70"/>
</g>
<g id="clust2" class="cluster">
<title>cluster_ThemeModule_declarations</title>
<polygon fill="none" stroke="#000000" points="32,-78 32,-130 1066,-130 1066,-78 32,-78"/>
</g>
<g id="clust12" class="cluster">
<title>cluster_ThemeModule_exports</title>
<polygon fill="none" stroke="#000000" points="16,-208 16,-260 1076,-260 1076,-208 16,-208"/>
</g>
<!-- AlertMessagesComponent -->
<g id="node1" class="node">
<title>AlertMessagesComponent</title>
<polygon fill="#ffffb3" stroke="#000000" points="1058.0183,-122 893.9817,-122 893.9817,-86 1058.0183,-86 1058.0183,-122"/>
<text text-anchor="middle" x="976" y="-99.8" font-family="Times,serif" font-size="14.00" fill="#000000">AlertMessagesComponent</text>
</g>
<!-- ThemeModule -->
<g id="node9" class="node">
<title>ThemeModule</title>
<polygon fill="#8dd3c7" stroke="#000000" points="591.4231,-187 588.4231,-191 567.4231,-191 564.4231,-187 492.5769,-187 492.5769,-151 591.4231,-151 591.4231,-187"/>
<text text-anchor="middle" x="542" y="-164.8" font-family="Times,serif" font-size="14.00" fill="#000000">ThemeModule</text>
</g>
<!-- AlertMessagesComponent&#45;&gt;ThemeModule -->
<g id="edge1" class="edge">
<title>AlertMessagesComponent&#45;&gt;ThemeModule</title>
<path fill="none" stroke="#000000" d="M1005.5029,-122.2222C1005.5029,-140.8285 1005.5029,-167 1005.5029,-167 1005.5029,-167 601.6029,-167 601.6029,-167"/>
<polygon fill="#000000" stroke="#000000" points="601.603,-163.5001 591.6029,-167 601.6029,-170.5001 601.603,-163.5001"/>
</g>
<!-- ButtonComponent -->
<g id="node2" class="node">
<title>ButtonComponent</title>
<polygon fill="#ffffb3" stroke="#000000" points="875.9511,-122 756.0489,-122 756.0489,-86 875.9511,-86 875.9511,-122"/>
<text text-anchor="middle" x="816" y="-99.8" font-family="Times,serif" font-size="14.00" fill="#000000">ButtonComponent</text>
</g>
<!-- ButtonComponent&#45;&gt;ThemeModule -->
<g id="edge2" class="edge">
<title>ButtonComponent&#45;&gt;ThemeModule</title>
<path fill="none" stroke="#000000" d="M836.9917,-122.0225C836.9917,-139.3734 836.9917,-163 836.9917,-163 836.9917,-163 601.375,-163 601.375,-163"/>
<polygon fill="#000000" stroke="#000000" points="601.375,-159.5001 591.375,-163 601.3749,-166.5001 601.375,-159.5001"/>
</g>
<!-- Footer -->
<g id="node3" class="node">
<title>Footer</title>
<polygon fill="#ffffb3" stroke="#000000" points="738,-122 684,-122 684,-86 738,-86 738,-122"/>
<text text-anchor="middle" x="711" y="-99.8" font-family="Times,serif" font-size="14.00" fill="#000000">Footer</text>
</g>
<!-- Footer&#45;&gt;ThemeModule -->
<g id="edge3" class="edge">
<title>Footer&#45;&gt;ThemeModule</title>
<path fill="none" stroke="#000000" d="M720.6586,-122.0091C720.6586,-138.0494 720.6586,-159 720.6586,-159 720.6586,-159 601.2922,-159 601.2922,-159"/>
<polygon fill="#000000" stroke="#000000" points="601.2922,-155.5001 591.2922,-159 601.2921,-162.5001 601.2922,-155.5001"/>
</g>
<!-- Header -->
<g id="node4" class="node">
<title>Header</title>
<polygon fill="#ffffb3" stroke="#000000" points="666.4125,-122 609.5875,-122 609.5875,-86 666.4125,-86 666.4125,-122"/>
<text text-anchor="middle" x="638" y="-99.8" font-family="Times,serif" font-size="14.00" fill="#000000">Header</text>
</g>
<!-- Header&#45;&gt;ThemeModule -->
<g id="edge4" class="edge">
<title>Header&#45;&gt;ThemeModule</title>
<path fill="none" stroke="#000000" d="M628.5982,-122.1243C628.5982,-136.7832 628.5982,-155 628.5982,-155 628.5982,-155 601.3702,-155 601.3702,-155"/>
<polygon fill="#000000" stroke="#000000" points="601.3702,-151.5001 591.3702,-155 601.3701,-158.5001 601.3702,-151.5001"/>
</g>
<!-- InputComponent -->
<g id="node5" class="node">
<title>InputComponent</title>
<polygon fill="#ffffb3" stroke="#000000" points="591.3837,-122 480.6163,-122 480.6163,-86 591.3837,-86 591.3837,-122"/>
<text text-anchor="middle" x="536" y="-99.8" font-family="Times,serif" font-size="14.00" fill="#000000">InputComponent</text>
</g>
<!-- InputComponent&#45;&gt;ThemeModule -->
<g id="edge5" class="edge">
<title>InputComponent&#45;&gt;ThemeModule</title>
<path fill="none" stroke="#000000" d="M542,-122.1061C542,-122.1061 542,-140.991 542,-140.991"/>
<polygon fill="#000000" stroke="#000000" points="538.5001,-140.9909 542,-150.991 545.5001,-140.991 538.5001,-140.9909"/>
</g>
<!-- NewsDetailDialog -->
<g id="node6" class="node">
<title>NewsDetailDialog</title>
<polygon fill="#ffffb3" stroke="#000000" points="462.1825,-122 341.8175,-122 341.8175,-86 462.1825,-86 462.1825,-122"/>
<text text-anchor="middle" x="402" y="-99.8" font-family="Times,serif" font-size="14.00" fill="#000000">NewsDetailDialog</text>
</g>
<!-- NewsDetailDialog&#45;&gt;ThemeModule -->
<g id="edge6" class="edge">
<title>NewsDetailDialog&#45;&gt;ThemeModule</title>
<path fill="none" stroke="#000000" d="M419.1971,-122.2396C419.1971,-137.5706 419.1971,-157 419.1971,-157 419.1971,-157 482.7589,-157 482.7589,-157"/>
<polygon fill="#000000" stroke="#000000" points="482.759,-160.5001 492.7589,-157 482.7589,-153.5001 482.759,-160.5001"/>
</g>
<!-- ShowErrorValidComponent -->
<g id="node7" class="node">
<title>ShowErrorValidComponent</title>
<polygon fill="#ffffb3" stroke="#000000" points="323.8585,-122 150.1415,-122 150.1415,-86 323.8585,-86 323.8585,-122"/>
<text text-anchor="middle" x="237" y="-99.8" font-family="Times,serif" font-size="14.00" fill="#000000">ShowErrorValidComponent</text>
</g>
<!-- ShowErrorValidComponent&#45;&gt;ThemeModule -->
<g id="edge7" class="edge">
<title>ShowErrorValidComponent&#45;&gt;ThemeModule</title>
<path fill="none" stroke="#000000" d="M319.8042,-122.0336C319.8042,-139.0597 319.8042,-162 319.8042,-162 319.8042,-162 482.6876,-162 482.6876,-162"/>
<polygon fill="#000000" stroke="#000000" points="482.6876,-165.5001 492.6876,-162 482.6875,-158.5001 482.6876,-165.5001"/>
</g>
<!-- TranslatePipe -->
<g id="node8" class="node">
<title>TranslatePipe</title>
<polygon fill="#ffffb3" stroke="#000000" points="132.4706,-122 39.5294,-122 39.5294,-86 132.4706,-86 132.4706,-122"/>
<text text-anchor="middle" x="86" y="-99.8" font-family="Times,serif" font-size="14.00" fill="#000000">TranslatePipe</text>
</g>
<!-- TranslatePipe&#45;&gt;ThemeModule -->
<g id="edge8" class="edge">
<title>TranslatePipe&#45;&gt;ThemeModule</title>
<path fill="none" stroke="#000000" d="M126.3603,-122.2222C126.3603,-140.8285 126.3603,-167 126.3603,-167 126.3603,-167 482.6885,-167 482.6885,-167"/>
<polygon fill="#000000" stroke="#000000" points="482.6885,-170.5001 492.6885,-167 482.6884,-163.5001 482.6885,-170.5001"/>
</g>
<!-- AlertMessagesComponent  -->
<g id="node10" class="node">
<title>AlertMessagesComponent </title>
<polygon fill="#fb8072" stroke="#000000" points="1068.0176,-252 899.9824,-252 899.9824,-216 1068.0176,-216 1068.0176,-252"/>
<text text-anchor="middle" x="984" y="-229.8" font-family="Times,serif" font-size="14.00" fill="#000000">AlertMessagesComponent </text>
</g>
<!-- ThemeModule&#45;&gt;AlertMessagesComponent  -->
<g id="edge9" class="edge">
<title>ThemeModule&#45;&gt;AlertMessagesComponent </title>
<path fill="none" stroke="#000000" stroke-dasharray="5,2" d="M591.5457,-171C700.7919,-171 952.7471,-171 952.7471,-171 952.7471,-171 952.7471,-205.7778 952.7471,-205.7778"/>
<polygon fill="#000000" stroke="#000000" points="949.2472,-205.7778 952.7471,-215.7778 956.2472,-205.7778 949.2472,-205.7778"/>
</g>
<!-- ButtonComponent  -->
<g id="node11" class="node">
<title>ButtonComponent </title>
<polygon fill="#fb8072" stroke="#000000" points="882.4502,-252 759.5498,-252 759.5498,-216 882.4502,-216 882.4502,-252"/>
<text text-anchor="middle" x="821" y="-229.8" font-family="Times,serif" font-size="14.00" fill="#000000">ButtonComponent </text>
</g>
<!-- ThemeModule&#45;&gt;ButtonComponent  -->
<g id="edge10" class="edge">
<title>ThemeModule&#45;&gt;ButtonComponent </title>
<path fill="none" stroke="#000000" stroke-dasharray="5,2" d="M591.4092,-175C665.8749,-175 798.2583,-175 798.2583,-175 798.2583,-175 798.2583,-205.9775 798.2583,-205.9775"/>
<polygon fill="#000000" stroke="#000000" points="794.7584,-205.9774 798.2583,-215.9775 801.7584,-205.9775 794.7584,-205.9774"/>
</g>
<!-- Footer  -->
<g id="node12" class="node">
<title>Footer </title>
<polygon fill="#fb8072" stroke="#000000" points="742.0484,-252 685.9516,-252 685.9516,-216 742.0484,-216 742.0484,-252"/>
<text text-anchor="middle" x="714" y="-229.8" font-family="Times,serif" font-size="14.00" fill="#000000">Footer </text>
</g>
<!-- ThemeModule&#45;&gt;Footer  -->
<g id="edge11" class="edge">
<title>ThemeModule&#45;&gt;Footer </title>
<path fill="none" stroke="#000000" stroke-dasharray="5,2" d="M591.277,-179C638.7175,-179 703.3172,-179 703.3172,-179 703.3172,-179 703.3172,-205.9909 703.3172,-205.9909"/>
<polygon fill="#000000" stroke="#000000" points="699.8173,-205.9909 703.3172,-215.9909 706.8173,-205.991 699.8173,-205.9909"/>
</g>
<!-- Header  -->
<g id="node13" class="node">
<title>Header </title>
<polygon fill="#fb8072" stroke="#000000" points="667.9111,-252 608.0889,-252 608.0889,-216 667.9111,-216 667.9111,-252"/>
<text text-anchor="middle" x="638" y="-229.8" font-family="Times,serif" font-size="14.00" fill="#000000">Header </text>
</g>
<!-- ThemeModule&#45;&gt;Header  -->
<g id="edge12" class="edge">
<title>ThemeModule&#45;&gt;Header </title>
<path fill="none" stroke="#000000" stroke-dasharray="5,2" d="M591.3063,-183C618.7382,-183 647.4018,-183 647.4018,-183 647.4018,-183 647.4018,-205.8757 647.4018,-205.8757"/>
<polygon fill="#000000" stroke="#000000" points="643.9019,-205.8757 647.4018,-215.8757 650.9019,-205.8757 643.9019,-205.8757"/>
</g>
<!-- InputComponent  -->
<g id="node14" class="node">
<title>InputComponent </title>
<polygon fill="#fb8072" stroke="#000000" points="590.3842,-252 475.6158,-252 475.6158,-216 590.3842,-216 590.3842,-252"/>
<text text-anchor="middle" x="533" y="-229.8" font-family="Times,serif" font-size="14.00" fill="#000000">InputComponent </text>
</g>
<!-- ThemeModule&#45;&gt;InputComponent  -->
<g id="edge13" class="edge">
<title>ThemeModule&#45;&gt;InputComponent </title>
<path fill="none" stroke="#000000" stroke-dasharray="5,2" d="M541.4904,-187.1061C541.4904,-187.1061 541.4904,-205.991 541.4904,-205.991"/>
<polygon fill="#000000" stroke="#000000" points="537.9904,-205.9909 541.4904,-215.991 544.9904,-205.991 537.9904,-205.9909"/>
</g>
<!-- NewsDetailDialog  -->
<g id="node15" class="node">
<title>NewsDetailDialog </title>
<polygon fill="#fb8072" stroke="#000000" points="457.6828,-252 334.3172,-252 334.3172,-216 457.6828,-216 457.6828,-252"/>
<text text-anchor="middle" x="396" y="-229.8" font-family="Times,serif" font-size="14.00" fill="#000000">NewsDetailDialog </text>
</g>
<!-- ThemeModule&#45;&gt;NewsDetailDialog  -->
<g id="edge14" class="edge">
<title>ThemeModule&#45;&gt;NewsDetailDialog </title>
<path fill="none" stroke="#000000" stroke-dasharray="5,2" d="M492.6833,-182C445.2047,-182 380.5529,-182 380.5529,-182 380.5529,-182 380.5529,-205.8129 380.5529,-205.8129"/>
<polygon fill="#000000" stroke="#000000" points="377.053,-205.8129 380.5529,-215.8129 384.053,-205.813 377.053,-205.8129"/>
</g>
<!-- ShowErrorValidComponent  -->
<g id="node16" class="node">
<title>ShowErrorValidComponent </title>
<polygon fill="#fb8072" stroke="#000000" points="315.8588,-252 138.1412,-252 138.1412,-216 315.8588,-216 315.8588,-252"/>
<text text-anchor="middle" x="227" y="-229.8" font-family="Times,serif" font-size="14.00" fill="#000000">ShowErrorValidComponent </text>
</g>
<!-- ThemeModule&#45;&gt;ShowErrorValidComponent  -->
<g id="edge15" class="edge">
<title>ThemeModule&#45;&gt;ShowErrorValidComponent </title>
<path fill="none" stroke="#000000" stroke-dasharray="5,2" d="M492.6764,-177C405.402,-177 232.875,-177 232.875,-177 232.875,-177 232.875,-205.9648 232.875,-205.9648"/>
<polygon fill="#000000" stroke="#000000" points="229.3751,-205.9648 232.875,-215.9648 236.3751,-205.9649 229.3751,-205.9648"/>
</g>
<!-- TranslatePipe  -->
<g id="node17" class="node">
<title>TranslatePipe </title>
<polygon fill="#fb8072" stroke="#000000" points="120.4718,-252 23.5282,-252 23.5282,-216 120.4718,-216 120.4718,-252"/>
<text text-anchor="middle" x="72" y="-229.8" font-family="Times,serif" font-size="14.00" fill="#000000">TranslatePipe </text>
</g>
<!-- ThemeModule&#45;&gt;TranslatePipe  -->
<g id="edge16" class="edge">
<title>ThemeModule&#45;&gt;TranslatePipe </title>
<path fill="none" stroke="#000000" stroke-dasharray="5,2" d="M492.5445,-172C373.3289,-172 79.875,-172 79.875,-172 79.875,-172 79.875,-205.7333 79.875,-205.7333"/>
<polygon fill="#000000" stroke="#000000" points="76.3751,-205.7333 79.875,-215.7333 83.3751,-205.7333 76.3751,-205.7333"/>
</g>
</g>
</svg>
