<?xml version="1.0" encoding="UTF-8" standalone="no"?>
<!DOCTYPE svg PUBLIC "-//W3C//DTD SVG 1.1//EN"
 "http://www.w3.org/Graphics/SVG/1.1/DTD/svg11.dtd">
<!-- Generated by graphviz version 2.40.1 (20161225.0304)
 -->
<!-- Title: dependencies Pages: 1 -->
<svg width="504pt" height="211pt"
 viewBox="0.00 0.00 504.00 211.00" xmlns="http://www.w3.org/2000/svg" xmlns:xlink="http://www.w3.org/1999/xlink">
<g id="graph0" class="graph" transform="scale(1 1) rotate(0) translate(4 207)">
<title>dependencies</title>
<polygon fill="#ffffff" stroke="transparent" points="-4,4 -4,-207 500,-207 500,4 -4,4"/>
<text text-anchor="start" x="227.0091" y="-42.4" font-family="sans-serif" font-weight="bold" font-size="14.00" fill="#000000">Legend</text>
<polygon fill="#ffffb3" stroke="transparent" points="14,-10 14,-30 34,-30 34,-10 14,-10"/>
<text text-anchor="start" x="37.629" y="-15.4" font-family="sans-serif" font-size="14.00" fill="#000000"> &#160;Declarations</text>
<polygon fill="#8dd3c7" stroke="transparent" points="127,-10 127,-30 147,-30 147,-10 127,-10"/>
<text text-anchor="start" x="150.7251" y="-15.4" font-family="sans-serif" font-size="14.00" fill="#000000"> &#160;Module</text>
<polygon fill="#80b1d3" stroke="transparent" points="213,-10 213,-30 233,-30 233,-10 213,-10"/>
<text text-anchor="start" x="236.7812" y="-15.4" font-family="sans-serif" font-size="14.00" fill="#000000"> &#160;Bootstrap</text>
<polygon fill="#fdb462" stroke="transparent" points="310,-10 310,-30 330,-30 330,-10 310,-10"/>
<text text-anchor="start" x="333.6732" y="-15.4" font-family="sans-serif" font-size="14.00" fill="#000000"> &#160;Providers</text>
<polygon fill="#fb8072" stroke="transparent" points="406,-10 406,-30 426,-30 426,-10 406,-10"/>
<text text-anchor="start" x="429.7258" y="-15.4" font-family="sans-serif" font-size="14.00" fill="#000000"> &#160;Exports</text>
<g id="clust1" class="cluster">
<title>cluster_NewAccountModule</title>
<polygon fill="none" stroke="#000000" stroke-dasharray="1,5" points="112,-70 112,-195 384,-195 384,-70 112,-70"/>
</g>
<g id="clust2" class="cluster">
<title>cluster_NewAccountModule_declarations</title>
<polygon fill="none" stroke="#000000" points="242,-78 242,-130 376,-130 376,-78 242,-78"/>
</g>
<g id="clust4" class="cluster">
<title>cluster_NewAccountModule_imports</title>
<polygon fill="none" stroke="#000000" points="120,-78 120,-130 234,-130 234,-78 120,-78"/>
</g>
<!-- NewAccountPage -->
<g id="node1" class="node">
<title>NewAccountPage</title>
<polygon fill="#ffffb3" stroke="#000000" points="367.566,-122 250.434,-122 250.434,-86 367.566,-86 367.566,-122"/>
<text text-anchor="middle" x="309" y="-99.8" font-family="Times,serif" font-size="14.00" fill="#000000">NewAccountPage</text>
</g>
<!-- NewAccountModule -->
<g id="node2" class="node">
<title>NewAccountModule</title>
<polygon fill="#8dd3c7" stroke="#000000" points="314.9046,-187 311.9046,-191 290.9046,-191 287.9046,-187 181.0954,-187 181.0954,-151 314.9046,-151 314.9046,-187"/>
<text text-anchor="middle" x="248" y="-164.8" font-family="Times,serif" font-size="14.00" fill="#000000">NewAccountModule</text>
</g>
<!-- NewAccountPage&#45;&gt;NewAccountModule -->
<g id="edge1" class="edge">
<title>NewAccountPage&#45;&gt;NewAccountModule</title>
<path fill="none" stroke="#000000" d="M282.5845,-122.1061C282.5845,-122.1061 282.5845,-140.991 282.5845,-140.991"/>
<polygon fill="#000000" stroke="#000000" points="279.0846,-140.9909 282.5845,-150.991 286.0846,-140.991 279.0846,-140.9909"/>
</g>
<!-- ThemeModule -->
<g id="node3" class="node">
<title>ThemeModule</title>
<polygon fill="#8dd3c7" stroke="#000000" points="226.4231,-122 223.4231,-126 202.4231,-126 199.4231,-122 127.5769,-122 127.5769,-86 226.4231,-86 226.4231,-122"/>
<text text-anchor="middle" x="177" y="-99.8" font-family="Times,serif" font-size="14.00" fill="#000000">ThemeModule</text>
</g>
<!-- ThemeModule&#45;&gt;NewAccountModule -->
<g id="edge2" class="edge">
<title>ThemeModule&#45;&gt;NewAccountModule</title>
<path fill="none" stroke="#000000" d="M203.7546,-122.1061C203.7546,-122.1061 203.7546,-140.991 203.7546,-140.991"/>
<polygon fill="#000000" stroke="#000000" points="200.2546,-140.9909 203.7546,-150.991 207.2546,-140.991 200.2546,-140.9909"/>
</g>
</g>
</svg>
