<?xml version="1.0" encoding="UTF-8" standalone="no"?>
<!DOCTYPE svg PUBLIC "-//W3C//DTD SVG 1.1//EN"
 "http://www.w3.org/Graphics/SVG/1.1/DTD/svg11.dtd">
<!-- Generated by graphviz version 2.40.1 (20161225.0304)
 -->
<!-- Title: dependencies Pages: 1 -->
<svg width="1319pt" height="284pt"
 viewBox="0.00 0.00 1319.00 284.00" xmlns="http://www.w3.org/2000/svg" xmlns:xlink="http://www.w3.org/1999/xlink">
<g id="graph0" class="graph" transform="scale(1 1) rotate(0) translate(4 280)">
<title>dependencies</title>
<polygon fill="#ffffff" stroke="transparent" points="-4,4 -4,-280 1315,-280 1315,4 -4,4"/>
<text text-anchor="start" x="634.5091" y="-42.4" font-family="sans-serif" font-weight="bold" font-size="14.00" fill="#000000">Legend</text>
<polygon fill="#ffffb3" stroke="transparent" points="421.5,-10 421.5,-30 441.5,-30 441.5,-10 421.5,-10"/>
<text text-anchor="start" x="445.129" y="-15.4" font-family="sans-serif" font-size="14.00" fill="#000000"> &#160;Declarations</text>
<polygon fill="#8dd3c7" stroke="transparent" points="534.5,-10 534.5,-30 554.5,-30 554.5,-10 534.5,-10"/>
<text text-anchor="start" x="558.2251" y="-15.4" font-family="sans-serif" font-size="14.00" fill="#000000"> &#160;Module</text>
<polygon fill="#80b1d3" stroke="transparent" points="620.5,-10 620.5,-30 640.5,-30 640.5,-10 620.5,-10"/>
<text text-anchor="start" x="644.2812" y="-15.4" font-family="sans-serif" font-size="14.00" fill="#000000"> &#160;Bootstrap</text>
<polygon fill="#fdb462" stroke="transparent" points="717.5,-10 717.5,-30 737.5,-30 737.5,-10 717.5,-10"/>
<text text-anchor="start" x="741.1732" y="-15.4" font-family="sans-serif" font-size="14.00" fill="#000000"> &#160;Providers</text>
<polygon fill="#fb8072" stroke="transparent" points="813.5,-10 813.5,-30 833.5,-30 833.5,-10 813.5,-10"/>
<text text-anchor="start" x="837.2258" y="-15.4" font-family="sans-serif" font-size="14.00" fill="#000000"> &#160;Exports</text>
<g id="clust1" class="cluster">
<title>cluster_AppModule</title>
<polygon fill="none" stroke="#000000" stroke-dasharray="1,5" points="8,-70 8,-268 1303,-268 1303,-70 8,-70"/>
</g>
<g id="clust2" class="cluster">
<title>cluster_AppModule_declarations</title>
<polygon fill="none" stroke="#000000" points="1173,-78 1173,-130 1295,-130 1295,-78 1173,-78"/>
</g>
<g id="clust4" class="cluster">
<title>cluster_AppModule_imports</title>
<polygon fill="none" stroke="#000000" points="16,-78 16,-130 1165,-130 1165,-78 16,-78"/>
</g>
<g id="clust6" class="cluster">
<title>cluster_AppModule_bootstrap</title>
<polygon fill="none" stroke="#000000" points="591,-208 591,-260 715,-260 715,-208 591,-208"/>
</g>
<!-- AppComponent -->
<g id="node1" class="node">
<title>AppComponent</title>
<polygon fill="#ffffb3" stroke="#000000" points="1286.9399,-122 1181.0601,-122 1181.0601,-86 1286.9399,-86 1286.9399,-122"/>
<text text-anchor="middle" x="1234" y="-99.8" font-family="Times,serif" font-size="14.00" fill="#000000">AppComponent</text>
</g>
<!-- AppModule -->
<g id="node2" class="node">
<title>AppModule</title>
<polygon fill="#8dd3c7" stroke="#000000" points="694.6571,-187 691.6571,-191 670.6571,-191 667.6571,-187 611.3429,-187 611.3429,-151 694.6571,-151 694.6571,-187"/>
<text text-anchor="middle" x="653" y="-164.8" font-family="Times,serif" font-size="14.00" fill="#000000">AppModule</text>
</g>
<!-- AppComponent&#45;&gt;AppModule -->
<g id="edge1" class="edge">
<title>AppComponent&#45;&gt;AppModule</title>
<path fill="none" stroke="#000000" d="M1234,-122.0109C1234,-144.4852 1234,-180 1234,-180 1234,-180 704.7841,-180 704.7841,-180"/>
<polygon fill="#000000" stroke="#000000" points="704.7841,-176.5001 694.7841,-180 704.7841,-183.5001 704.7841,-176.5001"/>
</g>
<!-- AppComponent  -->
<g id="node12" class="node">
<title>AppComponent </title>
<polygon fill="#80b1d3" stroke="#000000" points="707.439,-252 598.561,-252 598.561,-216 707.439,-216 707.439,-252"/>
<text text-anchor="middle" x="653" y="-229.8" font-family="Times,serif" font-size="14.00" fill="#000000">AppComponent </text>
</g>
<!-- AppModule&#45;&gt;AppComponent  -->
<g id="edge11" class="edge">
<title>AppModule&#45;&gt;AppComponent </title>
<path fill="none" stroke="#000000" stroke-dasharray="1,5" d="M653,-187.1061C653,-187.1061 653,-205.991 653,-205.991"/>
<polygon fill="#000000" stroke="#000000" points="649.5001,-205.9909 653,-215.991 656.5001,-205.991 649.5001,-205.9909"/>
</g>
<!-- AppRoutingModule -->
<g id="node3" class="node">
<title>AppRoutingModule</title>
<polygon fill="#8dd3c7" stroke="#000000" points="1157.2744,-122 1154.2744,-126 1133.2744,-126 1130.2744,-122 1028.7256,-122 1028.7256,-86 1157.2744,-86 1157.2744,-122"/>
<text text-anchor="middle" x="1093" y="-99.8" font-family="Times,serif" font-size="14.00" fill="#000000">AppRoutingModule</text>
</g>
<!-- AppRoutingModule&#45;&gt;AppModule -->
<g id="edge2" class="edge">
<title>AppRoutingModule&#45;&gt;AppModule</title>
<path fill="none" stroke="#000000" d="M1093,-122.1289C1093,-142.5724 1093,-173 1093,-173 1093,-173 704.7908,-173 704.7908,-173"/>
<polygon fill="#000000" stroke="#000000" points="704.7908,-169.5001 694.7908,-173 704.7908,-176.5001 704.7908,-169.5001"/>
</g>
<!-- CoreModule -->
<g id="node4" class="node">
<title>CoreModule</title>
<polygon fill="#8dd3c7" stroke="#000000" points="1010.2619,-122 1007.2619,-126 986.2619,-126 983.2619,-122 923.7381,-122 923.7381,-86 1010.2619,-86 1010.2619,-122"/>
<text text-anchor="middle" x="967" y="-99.8" font-family="Times,serif" font-size="14.00" fill="#000000">CoreModule</text>
</g>
<!-- CoreModule&#45;&gt;AppModule -->
<g id="edge3" class="edge">
<title>CoreModule&#45;&gt;AppModule</title>
<path fill="none" stroke="#000000" d="M967,-122.2667C967,-140.5552 967,-166 967,-166 967,-166 704.6968,-166 704.6968,-166"/>
<polygon fill="#000000" stroke="#000000" points="704.6968,-162.5001 694.6968,-166 704.6967,-169.5001 704.6968,-162.5001"/>
</g>
<!-- ErrorModule -->
<g id="node5" class="node">
<title>ErrorModule</title>
<polygon fill="#8dd3c7" stroke="#000000" points="905.5842,-122 902.5842,-126 881.5842,-126 878.5842,-122 816.4158,-122 816.4158,-86 905.5842,-86 905.5842,-122"/>
<text text-anchor="middle" x="861" y="-99.8" font-family="Times,serif" font-size="14.00" fill="#000000">ErrorModule</text>
</g>
<!-- ErrorModule&#45;&gt;AppModule -->
<g id="edge4" class="edge">
<title>ErrorModule&#45;&gt;AppModule</title>
<path fill="none" stroke="#000000" d="M861,-122.0091C861,-138.0494 861,-159 861,-159 861,-159 705.0919,-159 705.0919,-159"/>
<polygon fill="#000000" stroke="#000000" points="705.0919,-155.5001 695.0919,-159 705.0919,-162.5001 705.0919,-155.5001"/>
</g>
<!-- ForgotPasswordModule -->
<g id="node6" class="node">
<title>ForgotPasswordModule</title>
<polygon fill="#8dd3c7" stroke="#000000" points="798.0379,-122 795.0379,-126 774.0379,-126 771.0379,-122 647.9621,-122 647.9621,-86 798.0379,-86 798.0379,-122"/>
<text text-anchor="middle" x="723" y="-99.8" font-family="Times,serif" font-size="14.00" fill="#000000">ForgotPasswordModule</text>
</g>
<!-- ForgotPasswordModule&#45;&gt;AppModule -->
<g id="edge5" class="edge">
<title>ForgotPasswordModule&#45;&gt;AppModule</title>
<path fill="none" stroke="#000000" d="M671.2798,-122.1061C671.2798,-122.1061 671.2798,-140.991 671.2798,-140.991"/>
<polygon fill="#000000" stroke="#000000" points="667.7799,-140.9909 671.2798,-150.991 674.7799,-140.991 667.7799,-140.9909"/>
</g>
<!-- HomeModule -->
<g id="node7" class="node">
<title>HomeModule</title>
<polygon fill="#8dd3c7" stroke="#000000" points="629.7619,-122 626.7619,-126 605.7619,-126 602.7619,-122 536.2381,-122 536.2381,-86 629.7619,-86 629.7619,-122"/>
<text text-anchor="middle" x="583" y="-99.8" font-family="Times,serif" font-size="14.00" fill="#000000">HomeModule</text>
</g>
<!-- HomeModule&#45;&gt;AppModule -->
<g id="edge6" class="edge">
<title>HomeModule&#45;&gt;AppModule</title>
<path fill="none" stroke="#000000" d="M620.5263,-122.1061C620.5263,-122.1061 620.5263,-140.991 620.5263,-140.991"/>
<polygon fill="#000000" stroke="#000000" points="617.0264,-140.9909 620.5263,-150.991 624.0264,-140.991 617.0264,-140.9909"/>
</g>
<!-- LoginModule -->
<g id="node8" class="node">
<title>LoginModule</title>
<polygon fill="#8dd3c7" stroke="#000000" points="518.493,-122 515.493,-126 494.493,-126 491.493,-122 425.507,-122 425.507,-86 518.493,-86 518.493,-122"/>
<text text-anchor="middle" x="472" y="-99.8" font-family="Times,serif" font-size="14.00" fill="#000000">LoginModule</text>
</g>
<!-- LoginModule&#45;&gt;AppModule -->
<g id="edge7" class="edge">
<title>LoginModule&#45;&gt;AppModule</title>
<path fill="none" stroke="#000000" d="M472,-122.0091C472,-138.0494 472,-159 472,-159 472,-159 601.02,-159 601.02,-159"/>
<polygon fill="#000000" stroke="#000000" points="601.0201,-162.5001 611.02,-159 601.02,-155.5001 601.0201,-162.5001"/>
</g>
<!-- NewAccountModule -->
<g id="node9" class="node">
<title>NewAccountModule</title>
<polygon fill="#8dd3c7" stroke="#000000" points="407.9046,-122 404.9046,-126 383.9046,-126 380.9046,-122 274.0954,-122 274.0954,-86 407.9046,-86 407.9046,-122"/>
<text text-anchor="middle" x="341" y="-99.8" font-family="Times,serif" font-size="14.00" fill="#000000">NewAccountModule</text>
</g>
<!-- NewAccountModule&#45;&gt;AppModule -->
<g id="edge8" class="edge">
<title>NewAccountModule&#45;&gt;AppModule</title>
<path fill="none" stroke="#000000" d="M341,-122.2667C341,-140.5552 341,-166 341,-166 341,-166 601.246,-166 601.246,-166"/>
<polygon fill="#000000" stroke="#000000" points="601.2461,-169.5001 611.246,-166 601.246,-162.5001 601.2461,-169.5001"/>
</g>
<!-- NotFoundModule -->
<g id="node10" class="node">
<title>NotFoundModule</title>
<polygon fill="#8dd3c7" stroke="#000000" points="256.3301,-122 253.3301,-126 232.3301,-126 229.3301,-122 139.6699,-122 139.6699,-86 256.3301,-86 256.3301,-122"/>
<text text-anchor="middle" x="198" y="-99.8" font-family="Times,serif" font-size="14.00" fill="#000000">NotFoundModule</text>
</g>
<!-- NotFoundModule&#45;&gt;AppModule -->
<g id="edge9" class="edge">
<title>NotFoundModule&#45;&gt;AppModule</title>
<path fill="none" stroke="#000000" d="M198,-122.1289C198,-142.5724 198,-173 198,-173 198,-173 601.0103,-173 601.0103,-173"/>
<polygon fill="#000000" stroke="#000000" points="601.0103,-176.5001 611.0103,-173 601.0102,-169.5001 601.0103,-176.5001"/>
</g>
<!-- ThemeModule -->
<g id="node11" class="node">
<title>ThemeModule</title>
<polygon fill="#8dd3c7" stroke="#000000" points="122.4231,-122 119.4231,-126 98.4231,-126 95.4231,-122 23.5769,-122 23.5769,-86 122.4231,-86 122.4231,-122"/>
<text text-anchor="middle" x="73" y="-99.8" font-family="Times,serif" font-size="14.00" fill="#000000">ThemeModule</text>
</g>
<!-- ThemeModule&#45;&gt;AppModule -->
<g id="edge10" class="edge">
<title>ThemeModule&#45;&gt;AppModule</title>
<path fill="none" stroke="#000000" d="M73,-122.0109C73,-144.4852 73,-180 73,-180 73,-180 601.2878,-180 601.2878,-180"/>
<polygon fill="#000000" stroke="#000000" points="601.2879,-183.5001 611.2878,-180 601.2878,-176.5001 601.2879,-183.5001"/>
</g>
</g>
</svg>
