<?xml version="1.0" encoding="UTF-8" standalone="no"?>
<!DOCTYPE svg PUBLIC "-//W3C//DTD SVG 1.1//EN"
 "http://www.w3.org/Graphics/SVG/1.1/DTD/svg11.dtd">
<!-- Generated by graphviz version 2.40.1 (20161225.0304)
 -->
<!-- Title: dependencies Pages: 1 -->
<svg width="504pt" height="211pt"
 viewBox="0.00 0.00 504.00 211.00" xmlns="http://www.w3.org/2000/svg" xmlns:xlink="http://www.w3.org/1999/xlink">
<g id="graph0" class="graph" transform="scale(1 1) rotate(0) translate(4 207)">
<title>dependencies</title>
<polygon fill="#ffffff" stroke="transparent" points="-4,4 -4,-207 500,-207 500,4 -4,4"/>
<text text-anchor="start" x="227.0091" y="-42.4" font-family="sans-serif" font-weight="bold" font-size="14.00" fill="#000000">Legend</text>
<polygon fill="#ffffb3" stroke="transparent" points="14,-10 14,-30 34,-30 34,-10 14,-10"/>
<text text-anchor="start" x="37.629" y="-15.4" font-family="sans-serif" font-size="14.00" fill="#000000"> &#160;Declarations</text>
<polygon fill="#8dd3c7" stroke="transparent" points="127,-10 127,-30 147,-30 147,-10 127,-10"/>
<text text-anchor="start" x="150.7251" y="-15.4" font-family="sans-serif" font-size="14.00" fill="#000000"> &#160;Module</text>
<polygon fill="#80b1d3" stroke="transparent" points="213,-10 213,-30 233,-30 233,-10 213,-10"/>
<text text-anchor="start" x="236.7812" y="-15.4" font-family="sans-serif" font-size="14.00" fill="#000000"> &#160;Bootstrap</text>
<polygon fill="#fdb462" stroke="transparent" points="310,-10 310,-30 330,-30 330,-10 310,-10"/>
<text text-anchor="start" x="333.6732" y="-15.4" font-family="sans-serif" font-size="14.00" fill="#000000"> &#160;Providers</text>
<polygon fill="#fb8072" stroke="transparent" points="406,-10 406,-30 426,-30 426,-10 406,-10"/>
<text text-anchor="start" x="429.7258" y="-15.4" font-family="sans-serif" font-size="14.00" fill="#000000"> &#160;Exports</text>
<g id="clust1" class="cluster">
<title>cluster_HomeModule</title>
<polygon fill="none" stroke="#000000" stroke-dasharray="1,5" points="132,-70 132,-195 364,-195 364,-70 132,-70"/>
</g>
<g id="clust2" class="cluster">
<title>cluster_HomeModule_declarations</title>
<polygon fill="none" stroke="#000000" points="262,-78 262,-130 356,-130 356,-78 262,-78"/>
</g>
<g id="clust4" class="cluster">
<title>cluster_HomeModule_imports</title>
<polygon fill="none" stroke="#000000" points="140,-78 140,-130 254,-130 254,-78 140,-78"/>
</g>
<!-- HomePage -->
<g id="node1" class="node">
<title>HomePage</title>
<polygon fill="#ffffb3" stroke="#000000" points="347.9248,-122 270.0752,-122 270.0752,-86 347.9248,-86 347.9248,-122"/>
<text text-anchor="middle" x="309" y="-99.8" font-family="Times,serif" font-size="14.00" fill="#000000">HomePage</text>
</g>
<!-- HomeModule -->
<g id="node2" class="node">
<title>HomeModule</title>
<polygon fill="#8dd3c7" stroke="#000000" points="299.7619,-187 296.7619,-191 275.7619,-191 272.7619,-187 206.2381,-187 206.2381,-151 299.7619,-151 299.7619,-187"/>
<text text-anchor="middle" x="253" y="-164.8" font-family="Times,serif" font-size="14.00" fill="#000000">HomeModule</text>
</g>
<!-- HomePage&#45;&gt;HomeModule -->
<g id="edge1" class="edge">
<title>HomePage&#45;&gt;HomeModule</title>
<path fill="none" stroke="#000000" d="M285.0845,-122.1061C285.0845,-122.1061 285.0845,-140.991 285.0845,-140.991"/>
<polygon fill="#000000" stroke="#000000" points="281.5846,-140.9909 285.0845,-150.991 288.5846,-140.991 281.5846,-140.9909"/>
</g>
<!-- ThemeModule -->
<g id="node3" class="node">
<title>ThemeModule</title>
<polygon fill="#8dd3c7" stroke="#000000" points="246.4231,-122 243.4231,-126 222.4231,-126 219.4231,-122 147.5769,-122 147.5769,-86 246.4231,-86 246.4231,-122"/>
<text text-anchor="middle" x="197" y="-99.8" font-family="Times,serif" font-size="14.00" fill="#000000">ThemeModule</text>
</g>
<!-- ThemeModule&#45;&gt;HomeModule -->
<g id="edge2" class="edge">
<title>ThemeModule&#45;&gt;HomeModule</title>
<path fill="none" stroke="#000000" d="M226.1652,-122.1061C226.1652,-122.1061 226.1652,-140.991 226.1652,-140.991"/>
<polygon fill="#000000" stroke="#000000" points="222.6652,-140.9909 226.1652,-150.991 229.6652,-140.991 222.6652,-140.9909"/>
</g>
</g>
</svg>
