<?xml version="1.0" encoding="UTF-8" standalone="no"?>
<!DOCTYPE svg PUBLIC "-//W3C//DTD SVG 1.1//EN"
 "http://www.w3.org/Graphics/SVG/1.1/DTD/svg11.dtd">
<!-- Generated by graphviz version 2.40.1 (20161225.0304)
 -->
<!-- Title: dependencies Pages: 1 -->
<svg width="504pt" height="211pt"
 viewBox="0.00 0.00 504.00 211.00" xmlns="http://www.w3.org/2000/svg" xmlns:xlink="http://www.w3.org/1999/xlink">
<g id="graph0" class="graph" transform="scale(1 1) rotate(0) translate(4 207)">
<title>dependencies</title>
<polygon fill="#ffffff" stroke="transparent" points="-4,4 -4,-207 500,-207 500,4 -4,4"/>
<text text-anchor="start" x="227.0091" y="-42.4" font-family="sans-serif" font-weight="bold" font-size="14.00" fill="#000000">Legend</text>
<polygon fill="#ffffb3" stroke="transparent" points="14,-10 14,-30 34,-30 34,-10 14,-10"/>
<text text-anchor="start" x="37.629" y="-15.4" font-family="sans-serif" font-size="14.00" fill="#000000"> &#160;Declarations</text>
<polygon fill="#8dd3c7" stroke="transparent" points="127,-10 127,-30 147,-30 147,-10 127,-10"/>
<text text-anchor="start" x="150.7251" y="-15.4" font-family="sans-serif" font-size="14.00" fill="#000000"> &#160;Module</text>
<polygon fill="#80b1d3" stroke="transparent" points="213,-10 213,-30 233,-30 233,-10 213,-10"/>
<text text-anchor="start" x="236.7812" y="-15.4" font-family="sans-serif" font-size="14.00" fill="#000000"> &#160;Bootstrap</text>
<polygon fill="#fdb462" stroke="transparent" points="310,-10 310,-30 330,-30 330,-10 310,-10"/>
<text text-anchor="start" x="333.6732" y="-15.4" font-family="sans-serif" font-size="14.00" fill="#000000"> &#160;Providers</text>
<polygon fill="#fb8072" stroke="transparent" points="406,-10 406,-30 426,-30 426,-10 406,-10"/>
<text text-anchor="start" x="429.7258" y="-15.4" font-family="sans-serif" font-size="14.00" fill="#000000"> &#160;Exports</text>
<g id="clust1" class="cluster">
<title>cluster_ForgotPasswordModule</title>
<polygon fill="none" stroke="#000000" stroke-dasharray="1,5" points="104,-70 104,-195 392,-195 392,-70 104,-70"/>
</g>
<g id="clust2" class="cluster">
<title>cluster_ForgotPasswordModule_declarations</title>
<polygon fill="none" stroke="#000000" points="234,-78 234,-130 384,-130 384,-78 234,-78"/>
</g>
<g id="clust4" class="cluster">
<title>cluster_ForgotPasswordModule_imports</title>
<polygon fill="none" stroke="#000000" points="112,-78 112,-130 226,-130 226,-78 112,-78"/>
</g>
<!-- ForgotPasswordPage -->
<g id="node1" class="node">
<title>ForgotPasswordPage</title>
<polygon fill="#ffffb3" stroke="#000000" points="376.1993,-122 241.8007,-122 241.8007,-86 376.1993,-86 376.1993,-122"/>
<text text-anchor="middle" x="309" y="-99.8" font-family="Times,serif" font-size="14.00" fill="#000000">ForgotPasswordPage</text>
</g>
<!-- ForgotPasswordModule -->
<g id="node2" class="node">
<title>ForgotPasswordModule</title>
<polygon fill="#8dd3c7" stroke="#000000" points="323.0379,-187 320.0379,-191 299.0379,-191 296.0379,-187 172.9621,-187 172.9621,-151 323.0379,-151 323.0379,-187"/>
<text text-anchor="middle" x="248" y="-164.8" font-family="Times,serif" font-size="14.00" fill="#000000">ForgotPasswordModule</text>
</g>
<!-- ForgotPasswordPage&#45;&gt;ForgotPasswordModule -->
<g id="edge1" class="edge">
<title>ForgotPasswordPage&#45;&gt;ForgotPasswordModule</title>
<path fill="none" stroke="#000000" d="M282.5845,-122.1061C282.5845,-122.1061 282.5845,-140.991 282.5845,-140.991"/>
<polygon fill="#000000" stroke="#000000" points="279.0846,-140.9909 282.5845,-150.991 286.0846,-140.991 279.0846,-140.9909"/>
</g>
<!-- ThemeModule -->
<g id="node3" class="node">
<title>ThemeModule</title>
<polygon fill="#8dd3c7" stroke="#000000" points="218.4231,-122 215.4231,-126 194.4231,-126 191.4231,-122 119.5769,-122 119.5769,-86 218.4231,-86 218.4231,-122"/>
<text text-anchor="middle" x="169" y="-99.8" font-family="Times,serif" font-size="14.00" fill="#000000">ThemeModule</text>
</g>
<!-- ThemeModule&#45;&gt;ForgotPasswordModule -->
<g id="edge2" class="edge">
<title>ThemeModule&#45;&gt;ForgotPasswordModule</title>
<path fill="none" stroke="#000000" d="M195.4713,-122.1061C195.4713,-122.1061 195.4713,-140.991 195.4713,-140.991"/>
<polygon fill="#000000" stroke="#000000" points="191.9713,-140.9909 195.4713,-150.991 198.9713,-140.991 191.9713,-140.9909"/>
</g>
</g>
</svg>
