<?xml version="1.0" encoding="UTF-8" standalone="no"?>
<!DOCTYPE svg PUBLIC "-//W3C//DTD SVG 1.1//EN"
 "http://www.w3.org/Graphics/SVG/1.1/DTD/svg11.dtd">
<!-- Generated by graphviz version 2.40.1 (20161225.0304)
 -->
<!-- Title: dependencies Pages: 1 -->
<svg width="580pt" height="211pt"
 viewBox="0.00 0.00 580.00 211.00" xmlns="http://www.w3.org/2000/svg" xmlns:xlink="http://www.w3.org/1999/xlink">
<g id="graph0" class="graph" transform="scale(1 1) rotate(0) translate(4 207)">
<title>dependencies</title>
<polygon fill="#ffffff" stroke="transparent" points="-4,4 -4,-207 576,-207 576,4 -4,4"/>
<text text-anchor="start" x="265.0091" y="-42.4" font-family="sans-serif" font-weight="bold" font-size="14.00" fill="#000000">Legend</text>
<polygon fill="#ffffb3" stroke="transparent" points="52,-10 52,-30 72,-30 72,-10 52,-10"/>
<text text-anchor="start" x="75.629" y="-15.4" font-family="sans-serif" font-size="14.00" fill="#000000"> &#160;Declarations</text>
<polygon fill="#8dd3c7" stroke="transparent" points="165,-10 165,-30 185,-30 185,-10 165,-10"/>
<text text-anchor="start" x="188.7251" y="-15.4" font-family="sans-serif" font-size="14.00" fill="#000000"> &#160;Module</text>
<polygon fill="#80b1d3" stroke="transparent" points="251,-10 251,-30 271,-30 271,-10 251,-10"/>
<text text-anchor="start" x="274.7812" y="-15.4" font-family="sans-serif" font-size="14.00" fill="#000000"> &#160;Bootstrap</text>
<polygon fill="#fdb462" stroke="transparent" points="348,-10 348,-30 368,-30 368,-10 348,-10"/>
<text text-anchor="start" x="371.6732" y="-15.4" font-family="sans-serif" font-size="14.00" fill="#000000"> &#160;Providers</text>
<polygon fill="#fb8072" stroke="transparent" points="444,-10 444,-30 464,-30 464,-10 444,-10"/>
<text text-anchor="start" x="467.7258" y="-15.4" font-family="sans-serif" font-size="14.00" fill="#000000"> &#160;Exports</text>
<g id="clust1" class="cluster">
<title>cluster_WalletModule</title>
<polygon fill="none" stroke="#000000" stroke-dasharray="1,5" points="8,-70 8,-195 564,-195 564,-70 8,-70"/>
</g>
<g id="clust2" class="cluster">
<title>cluster_WalletModule_declarations</title>
<polygon fill="none" stroke="#000000" points="298,-78 298,-130 556,-130 556,-78 298,-78"/>
</g>
<g id="clust5" class="cluster">
<title>cluster_WalletModule_imports</title>
<polygon fill="none" stroke="#000000" points="16,-78 16,-130 290,-130 290,-78 16,-78"/>
</g>
<!-- MyWalletsComponent -->
<g id="node1" class="node">
<title>MyWalletsComponent</title>
<polygon fill="#ffffb3" stroke="#000000" points="547.5379,-122 404.4621,-122 404.4621,-86 547.5379,-86 547.5379,-122"/>
<text text-anchor="middle" x="476" y="-99.8" font-family="Times,serif" font-size="14.00" fill="#000000">MyWalletsComponent</text>
</g>
<!-- WalletModule -->
<g id="node3" class="node">
<title>WalletModule</title>
<polygon fill="#8dd3c7" stroke="#000000" points="337.3655,-187 334.3655,-191 313.3655,-191 310.3655,-187 240.6345,-187 240.6345,-151 337.3655,-151 337.3655,-187"/>
<text text-anchor="middle" x="289" y="-164.8" font-family="Times,serif" font-size="14.00" fill="#000000">WalletModule</text>
</g>
<!-- MyWalletsComponent&#45;&gt;WalletModule -->
<g id="edge1" class="edge">
<title>MyWalletsComponent&#45;&gt;WalletModule</title>
<path fill="none" stroke="#000000" d="M476,-122.1061C476,-141.3391 476,-169 476,-169 476,-169 347.6439,-169 347.6439,-169"/>
<polygon fill="#000000" stroke="#000000" points="347.6439,-165.5001 337.6439,-169 347.6439,-172.5001 347.6439,-165.5001"/>
</g>
<!-- WalletPage -->
<g id="node2" class="node">
<title>WalletPage</title>
<polygon fill="#ffffb3" stroke="#000000" points="386.0288,-122 305.9712,-122 305.9712,-86 386.0288,-86 386.0288,-122"/>
<text text-anchor="middle" x="346" y="-99.8" font-family="Times,serif" font-size="14.00" fill="#000000">WalletPage</text>
</g>
<!-- WalletPage&#45;&gt;WalletModule -->
<g id="edge2" class="edge">
<title>WalletPage&#45;&gt;WalletModule</title>
<path fill="none" stroke="#000000" d="M321.5845,-122.1061C321.5845,-122.1061 321.5845,-140.991 321.5845,-140.991"/>
<polygon fill="#000000" stroke="#000000" points="318.0846,-140.9909 321.5845,-150.991 325.0846,-140.991 318.0846,-140.9909"/>
</g>
<!-- ThemeModule -->
<g id="node4" class="node">
<title>ThemeModule</title>
<polygon fill="#8dd3c7" stroke="#000000" points="282.4231,-122 279.4231,-126 258.4231,-126 255.4231,-122 183.5769,-122 183.5769,-86 282.4231,-86 282.4231,-122"/>
<text text-anchor="middle" x="233" y="-99.8" font-family="Times,serif" font-size="14.00" fill="#000000">ThemeModule</text>
</g>
<!-- ThemeModule&#45;&gt;WalletModule -->
<g id="edge3" class="edge">
<title>ThemeModule&#45;&gt;WalletModule</title>
<path fill="none" stroke="#000000" d="M261.3892,-122.1061C261.3892,-122.1061 261.3892,-140.991 261.3892,-140.991"/>
<polygon fill="#000000" stroke="#000000" points="257.8893,-140.9909 261.3892,-150.991 264.8893,-140.991 257.8893,-140.9909"/>
</g>
<!-- WalletRoutingModule -->
<g id="node5" class="node">
<title>WalletRoutingModule</title>
<polygon fill="#8dd3c7" stroke="#000000" points="165.9832,-122 162.9832,-126 141.9832,-126 138.9832,-122 24.0168,-122 24.0168,-86 165.9832,-86 165.9832,-122"/>
<text text-anchor="middle" x="95" y="-99.8" font-family="Times,serif" font-size="14.00" fill="#000000">WalletRoutingModule</text>
</g>
<!-- WalletRoutingModule&#45;&gt;WalletModule -->
<g id="edge4" class="edge">
<title>WalletRoutingModule&#45;&gt;WalletModule</title>
<path fill="none" stroke="#000000" d="M95,-122.1061C95,-141.3391 95,-169 95,-169 95,-169 230.546,-169 230.546,-169"/>
<polygon fill="#000000" stroke="#000000" points="230.5461,-172.5001 240.546,-169 230.546,-165.5001 230.5461,-172.5001"/>
</g>
</g>
</svg>
