<?xml version="1.0" encoding="UTF-8" standalone="no"?>
<!DOCTYPE svg PUBLIC "-//W3C//DTD SVG 1.1//EN"
 "http://www.w3.org/Graphics/SVG/1.1/DTD/svg11.dtd">
<!-- Generated by graphviz version 2.40.1 (20161225.0304)
 -->
<!-- Title: dependencies Pages: 1 -->
<svg width="504pt" height="211pt"
 viewBox="0.00 0.00 504.00 211.00" xmlns="http://www.w3.org/2000/svg" xmlns:xlink="http://www.w3.org/1999/xlink">
<g id="graph0" class="graph" transform="scale(1 1) rotate(0) translate(4 207)">
<title>dependencies</title>
<polygon fill="#ffffff" stroke="transparent" points="-4,4 -4,-207 500,-207 500,4 -4,4"/>
<text text-anchor="start" x="227.0091" y="-42.4" font-family="sans-serif" font-weight="bold" font-size="14.00" fill="#000000">Legend</text>
<polygon fill="#ffffb3" stroke="transparent" points="14,-10 14,-30 34,-30 34,-10 14,-10"/>
<text text-anchor="start" x="37.629" y="-15.4" font-family="sans-serif" font-size="14.00" fill="#000000"> &#160;Declarations</text>
<polygon fill="#8dd3c7" stroke="transparent" points="127,-10 127,-30 147,-30 147,-10 127,-10"/>
<text text-anchor="start" x="150.7251" y="-15.4" font-family="sans-serif" font-size="14.00" fill="#000000"> &#160;Module</text>
<polygon fill="#80b1d3" stroke="transparent" points="213,-10 213,-30 233,-30 233,-10 213,-10"/>
<text text-anchor="start" x="236.7812" y="-15.4" font-family="sans-serif" font-size="14.00" fill="#000000"> &#160;Bootstrap</text>
<polygon fill="#fdb462" stroke="transparent" points="310,-10 310,-30 330,-30 330,-10 310,-10"/>
<text text-anchor="start" x="333.6732" y="-15.4" font-family="sans-serif" font-size="14.00" fill="#000000"> &#160;Providers</text>
<polygon fill="#fb8072" stroke="transparent" points="406,-10 406,-30 426,-30 426,-10 406,-10"/>
<text text-anchor="start" x="429.7258" y="-15.4" font-family="sans-serif" font-size="14.00" fill="#000000"> &#160;Exports</text>
<g id="clust1" class="cluster">
<title>cluster_NotFoundModule</title>
<polygon fill="none" stroke="#000000" stroke-dasharray="1,5" points="121,-70 121,-195 375,-195 375,-70 121,-70"/>
</g>
<g id="clust2" class="cluster">
<title>cluster_NotFoundModule_declarations</title>
<polygon fill="none" stroke="#000000" points="251,-78 251,-130 367,-130 367,-78 251,-78"/>
</g>
<g id="clust4" class="cluster">
<title>cluster_NotFoundModule_imports</title>
<polygon fill="none" stroke="#000000" points="129,-78 129,-130 243,-130 243,-78 129,-78"/>
</g>
<!-- NotFoundPage -->
<g id="node1" class="node">
<title>NotFoundPage</title>
<polygon fill="#ffffb3" stroke="#000000" points="358.9916,-122 259.0084,-122 259.0084,-86 358.9916,-86 358.9916,-122"/>
<text text-anchor="middle" x="309" y="-99.8" font-family="Times,serif" font-size="14.00" fill="#000000">NotFoundPage</text>
</g>
<!-- NotFoundModule -->
<g id="node2" class="node">
<title>NotFoundModule</title>
<polygon fill="#8dd3c7" stroke="#000000" points="306.3301,-187 303.3301,-191 282.3301,-191 279.3301,-187 189.6699,-187 189.6699,-151 306.3301,-151 306.3301,-187"/>
<text text-anchor="middle" x="248" y="-164.8" font-family="Times,serif" font-size="14.00" fill="#000000">NotFoundModule</text>
</g>
<!-- NotFoundPage&#45;&gt;NotFoundModule -->
<g id="edge1" class="edge">
<title>NotFoundPage&#45;&gt;NotFoundModule</title>
<path fill="none" stroke="#000000" d="M282.5845,-122.1061C282.5845,-122.1061 282.5845,-140.991 282.5845,-140.991"/>
<polygon fill="#000000" stroke="#000000" points="279.0846,-140.9909 282.5845,-150.991 286.0846,-140.991 279.0846,-140.9909"/>
</g>
<!-- ThemeModule -->
<g id="node3" class="node">
<title>ThemeModule</title>
<polygon fill="#8dd3c7" stroke="#000000" points="235.4231,-122 232.4231,-126 211.4231,-126 208.4231,-122 136.5769,-122 136.5769,-86 235.4231,-86 235.4231,-122"/>
<text text-anchor="middle" x="186" y="-99.8" font-family="Times,serif" font-size="14.00" fill="#000000">ThemeModule</text>
</g>
<!-- ThemeModule&#45;&gt;NotFoundModule -->
<g id="edge2" class="edge">
<title>ThemeModule&#45;&gt;NotFoundModule</title>
<path fill="none" stroke="#000000" d="M212.5232,-122.1061C212.5232,-122.1061 212.5232,-140.991 212.5232,-140.991"/>
<polygon fill="#000000" stroke="#000000" points="209.0232,-140.9909 212.5232,-150.991 216.0232,-140.991 209.0232,-140.9909"/>
</g>
</g>
</svg>
